<svg width="23" height="16" viewBox="0 0 23 16" fill="none" xmlns="http://www.w3.org/2000/svg">
<path d="M23 0H0V15.3335H23V0Z" fill="#6DA544"/>
<path d="M11.5 3.42965L17.25 7.6665L11.5 11.9034L5.75 7.6665L11.5 3.42965Z" fill="#FFDA44"/>
<path d="M11.5001 10.0875C12.8372 10.0875 13.9211 9.00359 13.9211 7.6665C13.9211 6.32941 12.8372 5.24548 11.5001 5.24548C10.163 5.24548 9.0791 6.32941 9.0791 7.6665C9.0791 9.00359 10.163 10.0875 11.5001 10.0875Z" fill="#F0F0F0"/>
<path d="M10.2893 7.51521C9.86833 7.51521 9.46205 7.57926 9.07959 7.69804C9.09653 9.02054 10.1733 10.0876 11.4998 10.0876C12.3201 10.0876 13.0445 9.67927 13.4824 9.05522C12.7333 8.11729 11.5804 7.51521 10.2893 7.51521Z" fill="#0052B4"/>
<path d="M13.8761 8.13037C13.9053 7.98015 13.9211 7.82521 13.9211 7.6665C13.9211 6.3294 12.8371 5.24544 11.5 5.24544C10.5023 5.24544 9.64584 5.8491 9.27515 6.71092C9.60276 6.64309 9.94201 6.60729 10.2894 6.60729C11.6957 6.60733 12.9678 7.19181 13.8761 8.13037Z" fill="#0052B4"/>
</svg>
