<svg width="34" height="35" viewBox="0 0 34 35" fill="none" xmlns="http://www.w3.org/2000/svg">
<path d="M33.0112 19.132C32.5764 25.4543 29.6793 29.9871 24.1308 32.8138C22.3424 33.7244 20.401 34.1317 18.4067 34.3334C17.7209 34.4034 17.5374 34.1651 17.5692 33.511C17.9159 26.538 23.7172 20.3065 30.7774 19.3572C31.465 19.2647 32.1583 19.2111 33.0112 19.132Z" fill="url(#paint0_linear_1491_503)"/>
<path d="M0.985768 19.2111C9.87947 19.1946 16.4984 27.0126 16.1849 34.2249C8.22567 34.5841 0.694765 27.1917 0.985768 19.2111Z" fill="url(#paint1_linear_1491_503)"/>
<path d="M31.2409 11.95C31.2348 13.9446 30.8961 15.9248 30.2381 17.8111C30.1609 18.0289 29.7599 18.2019 29.4808 18.2706C23.988 19.6099 20.0552 22.8092 17.6826 27.8683C17.4117 28.449 17.2044 29.0624 16.9257 29.7727C16.7317 29.2677 16.6227 28.8564 16.4274 28.4982C15.6247 27.0729 14.807 25.6533 13.959 24.2519C13.7574 23.919 13.5788 23.6759 13.7834 23.2534C16.7573 17.093 21.6248 13.3773 28.4589 12.2088C29.337 12.0557 30.2428 12.0378 31.2409 11.95Z" fill="url(#paint2_linear_1491_503)"/>
<path d="M2.61359 11.993C7.8636 12.0677 12.2416 13.9138 15.9171 17.3498L12.5084 22.5451C12.393 22.4849 12.2844 22.4129 12.1842 22.3303C9.91258 20.2408 7.25051 18.9303 4.2445 18.2365C4.00542 18.1827 3.70382 18.017 3.62663 17.8258C2.9466 15.9929 2.66209 14.0885 2.61359 11.993Z" fill="url(#paint3_linear_1491_503)"/>
<path d="M16.8998 16.4453L14.265 14.2854C16.7228 9.98393 22.2017 6.92729 27.2263 7.0643C27.2452 8.42025 27.0406 9.77022 26.6204 11.0615C26.5828 11.1854 26.3645 11.2988 26.2084 11.3375C22.7774 12.2179 19.6335 13.9525 17.0784 16.3749C17.0227 16.4069 16.9625 16.4306 16.8998 16.4453Z" fill="url(#paint4_linear_1491_503)"/>
<path d="M16.9759 0.703613C18.31 1.97676 19.2838 3.49767 20.041 5.15728C20.845 6.92595 20.8266 6.92124 19.1461 7.88569C18.516 8.2469 17.9347 8.69765 17.3018 9.04371C17.1816 9.09806 17.0509 9.1262 16.9187 9.1262C16.7865 9.1262 16.6558 9.09806 16.5357 9.04371C15.5257 8.49298 14.5365 7.89916 13.5614 7.29019C13.3947 7.18718 13.2055 6.91686 13.2284 6.75157C13.4531 5.18858 15.6128 1.72294 16.9759 0.703613Z" fill="url(#paint5_linear_1491_503)"/>
<path d="M6.61591 6.99902C10.1172 7.11685 13.1549 8.14358 15.8378 10.1543L13.0938 13.4439C11.7218 12.8753 10.3832 12.03 8.93983 11.7917C7.01689 11.4736 6.90315 10.2051 6.7334 8.82728C6.65211 8.24827 6.65382 7.65883 6.61591 6.99902Z" fill="url(#paint6_linear_1491_503)"/>
<path d="M18.1932 34.5C17.9353 34.5 17.756 34.4424 17.6262 34.3216C17.4555 34.163 17.3923 33.9176 17.4124 33.5035C17.7635 26.4437 23.6249 20.1624 30.7562 19.204C31.2952 19.1313 31.8321 19.0828 32.4537 19.0273C32.6279 19.0115 32.8083 18.9936 32.9961 18.9778L33.1802 18.9606L33.1676 19.1424C32.7246 25.5869 29.7924 30.1035 24.2028 32.9515C22.6112 33.7617 20.7747 34.2499 18.4227 34.4872C18.3465 34.4953 18.2699 34.4996 18.1932 34.5ZM32.8411 19.303L32.4821 19.3367C31.8646 19.3922 31.3307 19.4403 30.7986 19.5117C23.8121 20.4496 18.0689 26.6026 17.7273 33.5184C17.7127 33.8254 17.7495 34.0092 17.8435 34.0967C17.9374 34.1842 18.1126 34.2078 18.39 34.1795C20.7019 33.9459 22.5029 33.4682 24.0597 32.6764C29.4897 29.9093 32.3639 25.5337 32.8411 19.303Z" fill="#5093FE"/>
<path d="M15.6302 34.393C11.9964 34.393 8.3114 32.8158 5.43893 30.0124C2.36803 27.0163 0.687588 23.076 0.827966 19.2064L0.833431 19.0576H1.01309C5.15476 19.0576 9.07169 20.7384 12.0453 23.7927C14.8924 26.7147 16.4977 30.6183 16.3406 34.2324L16.3345 34.3738L16.1907 34.3805C16.0045 34.3889 15.817 34.393 15.6302 34.393ZM1.1381 19.3663C1.04827 23.1029 2.6908 26.8944 5.65992 29.7925C8.57952 32.6421 12.3506 34.1964 16.0322 34.0769C16.1384 30.5853 14.5707 26.8308 11.8185 24.0055C8.93541 21.0434 5.14725 19.3996 1.1381 19.3663Z" fill="#5093FE"/>
<path d="M16.924 30.2052L16.7789 29.8268C16.714 29.6585 16.6586 29.4996 16.6081 29.3505C16.5056 29.0549 16.4151 28.7994 16.2904 28.5708C15.3699 26.9361 14.5864 25.5879 13.8254 24.3292L13.7892 24.27C13.5966 23.9546 13.4135 23.6567 13.6431 23.185C16.646 16.964 21.6221 13.2207 28.4323 12.0546C29.0379 11.9495 29.651 11.9078 30.2999 11.864C30.6012 11.8435 30.9092 11.8226 31.2269 11.7947L31.3977 11.7795V11.9479C31.3926 13.9595 31.051 15.9566 30.3867 17.8588C30.2562 18.2274 29.5939 18.3998 29.5191 18.4183C24.1 19.7419 20.1657 22.9423 17.8254 27.9326C17.642 28.3254 17.4838 28.7425 17.3182 29.1842C17.2403 29.3905 17.1597 29.6043 17.0722 29.8278L16.924 30.2052ZM31.0821 12.1185C30.8228 12.1397 30.5697 12.1569 30.3208 12.1737C29.6803 12.2172 29.0754 12.2582 28.4859 12.3602C21.7809 13.5068 16.882 17.194 13.9252 23.3193C13.7694 23.6408 13.8777 23.8179 14.057 24.1114L14.0939 24.172C14.8583 25.4324 15.6415 26.783 16.5661 28.4224C16.7027 28.6749 16.797 28.9411 16.9049 29.2495C16.9134 29.2744 16.9223 29.2996 16.9312 29.3249C16.9633 29.2407 16.9944 29.1566 17.0251 29.0765C17.1938 28.6291 17.353 28.2066 17.5415 27.803C19.9239 22.7228 23.9286 19.4652 29.4447 18.1204C29.7579 18.0433 30.0482 17.8817 30.0916 17.7598C30.7249 15.9435 31.0593 14.039 31.0821 12.1185Z" fill="#5093FE"/>
<path d="M12.562 22.7484L12.4347 22.6811C12.3099 22.6156 12.1922 22.5376 12.0835 22.4485C9.88974 20.4307 7.31579 19.1037 4.20868 18.3863C3.97711 18.3342 3.5915 18.1568 3.48083 17.8814C2.83564 16.14 2.50912 14.271 2.45652 11.9967L2.45276 11.8361L2.61602 11.8381C7.83188 11.9119 12.2181 13.6785 16.0251 17.2374L16.1197 17.3259L12.562 22.7484ZM2.77484 12.1505C2.83803 14.3174 3.15636 16.1077 3.77423 17.7723C3.82034 17.8868 4.05738 18.0349 4.27939 18.0851C7.44251 18.8155 10.0629 20.1668 12.2912 22.2169C12.3443 22.26 12.4 22.3001 12.4579 22.3367L15.7142 17.3737C12.0289 13.967 7.79363 12.2569 2.77484 12.1505Z" fill="#5093FE"/>
<path d="M16.8601 16.6139L14.0638 14.3221L14.1281 14.2097C16.6245 9.84052 22.1313 6.76807 27.2307 6.91012L27.3813 6.91416L27.3834 7.06262C27.4025 8.43534 27.1949 9.80197 26.7686 11.109C26.7037 11.3214 26.398 11.45 26.2457 11.488C22.8423 12.3636 19.7236 14.0846 17.1873 16.4867L17.1573 16.5089C17.0884 16.5482 17.0141 16.5775 16.9366 16.5957L16.8601 16.6139ZM14.4665 14.2494L16.9346 16.2726C16.9516 16.2658 16.9682 16.2581 16.9845 16.2497C19.5575 13.8177 22.7193 12.0752 26.1688 11.1881C26.3147 11.1517 26.4551 11.0585 26.4704 11.0167C26.8706 9.78852 27.0731 8.50611 27.0705 7.21612C22.172 7.14678 16.9134 10.0772 14.4665 14.2494Z" fill="#5093FE"/>
<path d="M16.9182 9.28075C16.7635 9.2808 16.6106 9.2482 16.4697 9.18515C15.5639 8.69198 14.6165 8.13317 13.4767 7.42152C13.2848 7.30269 13.0375 6.9839 13.072 6.73244C13.3018 5.13982 15.4731 1.63311 16.8806 0.580455L16.9879 0.5L17.0849 0.592574C18.3322 1.78257 19.346 3.25501 20.1838 5.0937C21.0168 6.92566 20.9909 7.00713 19.2561 8.00121L19.2247 8.01939C18.9344 8.18568 18.6482 8.37554 18.3708 8.558C18.0508 8.77042 17.7198 8.99024 17.3766 9.17774C17.2334 9.24496 17.0768 9.28014 16.9182 9.28075ZM16.9647 0.909683C15.6268 2.00273 13.5946 5.31016 13.3831 6.77451C13.3719 6.85531 13.5098 7.07749 13.6441 7.15895C14.7791 7.86756 15.7214 8.42335 16.6108 8.90945C16.7099 8.95038 16.8164 8.97102 16.9239 8.97009C17.0313 8.96917 17.1375 8.9467 17.2358 8.90406C17.5562 8.72834 17.8814 8.51255 18.196 8.30384C18.4771 8.11701 18.7677 7.92412 19.0666 7.75277L19.0983 7.73493C19.8648 7.29731 20.2869 7.05358 20.3781 6.77081C20.471 6.48299 20.2671 6.03493 19.8972 5.2223C19.0983 3.46709 18.1372 2.05525 16.9647 0.909683Z" fill="#5093FE"/>
<path d="M13.1399 13.6311L13.032 13.5863C12.6051 13.4096 12.1761 13.2035 11.7614 13.0046C10.8409 12.5626 9.88903 12.1058 8.91287 11.9442C6.9158 11.614 6.74879 10.2523 6.58757 8.93536L6.57664 8.84615C6.52029 8.43983 6.50389 8.02981 6.48647 7.59556C6.47862 7.40502 6.47076 7.20977 6.45915 7.00779L6.44958 6.83948L6.62036 6.8452C10.1882 6.96336 13.2335 8.00692 15.9318 10.0311L16.0616 10.1284L13.1399 13.6311ZM6.78157 7.16029C6.78875 7.30403 6.79455 7.44508 6.80002 7.5831C6.81744 8.00995 6.83417 8.4129 6.88814 8.80643L6.89941 8.89833C7.06028 10.2112 7.19929 11.347 8.96512 11.6389C9.98603 11.8072 10.9584 12.2748 11.8987 12.7262C12.2744 12.9066 12.6624 13.0928 13.046 13.2561L15.6114 10.1809C13.0422 8.29205 10.1507 7.30269 6.78157 7.16029Z" fill="#5093FE"/>
<defs>
<linearGradient id="paint0_linear_1491_503" x1="22.3895" y1="19.7649" x2="30.7786" y2="39.8887" gradientUnits="userSpaceOnUse">
<stop stop-color="#5093FE"/>
<stop offset="1" stop-color="#00F391"/>
</linearGradient>
<linearGradient id="paint1_linear_1491_503" x1="5.63294" y1="19.8769" x2="13.9349" y2="39.7394" gradientUnits="userSpaceOnUse">
<stop stop-color="#5093FE"/>
<stop offset="1" stop-color="#00F391"/>
</linearGradient>
<linearGradient id="paint2_linear_1491_503" x1="20.0232" y1="12.326" x2="30.0628" y2="35.6823" gradientUnits="userSpaceOnUse">
<stop stop-color="#5093FE"/>
<stop offset="1" stop-color="#00F391"/>
</linearGradient>
<linearGradient id="paint3_linear_1491_503" x1="7.86121" y1="12.0654" x2="12.8042" y2="26.7897" gradientUnits="userSpaceOnUse">
<stop stop-color="#5093FE"/>
<stop offset="1" stop-color="#00F391"/>
</linearGradient>
<linearGradient id="paint4_linear_1491_503" x1="19.6035" y1="7.05521" x2="23.6854" y2="20.3764" gradientUnits="userSpaceOnUse">
<stop stop-color="#5093FE"/>
<stop offset="1" stop-color="#00F391"/>
</linearGradient>
<linearGradient id="paint5_linear_1491_503" x1="14.4252" y1="1.58425" x2="19.5678" y2="12.1612" gradientUnits="userSpaceOnUse">
<stop stop-color="#5093FE"/>
<stop offset="1" stop-color="#00F391"/>
</linearGradient>
<linearGradient id="paint6_linear_1491_503" x1="10.4331" y1="6.98993" x2="13.1549" y2="16.1913" gradientUnits="userSpaceOnUse">
<stop stop-color="#5093FE"/>
<stop offset="1" stop-color="#00F391"/>
</linearGradient>
</defs>
</svg>
