<svg width="36" height="36" viewBox="0 0 36 36" fill="none" xmlns="http://www.w3.org/2000/svg">
<path d="M10.125 11.25L14.625 14.625L10.125 18M16.875 18H21.375M7.875 30.375H28.125C29.0201 30.375 29.8785 30.0194 30.5115 29.3865C31.1444 28.7535 31.5 27.8951 31.5 27V9C31.5 8.10489 31.1444 7.24645 30.5115 6.61351C29.8785 5.98058 29.0201 5.625 28.125 5.625H7.875C6.97989 5.625 6.12145 5.98058 5.48851 6.61351C4.85558 7.24645 4.5 8.10489 4.5 9V27C4.5 27.8951 4.85558 28.7535 5.48851 29.3865C6.12145 30.0194 6.97989 30.375 7.875 30.375Z" stroke="white" stroke-width="2.25" stroke-linecap="round" stroke-linejoin="round"/>
</svg>
