<svg width="279" height="268" viewBox="0 0 279 268" fill="none" xmlns="http://www.w3.org/2000/svg">
<path d="M191.387 8.90984C186.313 0.300819 175.223 -2.56368 166.614 2.50638L23.9587 86.5577L203.752 29.8955L191.387 8.90984Z" fill="#00F391"/>
<path d="M247.033 44.7452C247.103 44.9546 247.196 45.1522 247.262 45.3654C247.2 45.1755 247.123 44.9623 247.033 44.7452Z" fill="#1E1E1E"/>
<path d="M247.262 45.3654C244.258 35.8377 234.099 30.5467 224.571 33.5469L56.3599 86.5615H260.244L247.262 45.3654Z" fill="#5093FE"/>
<path d="M0 96.3024V239.64C0 255.013 12.462 267.471 27.8311 267.471H250.499C265.872 267.471 278.33 255.009 278.33 239.64V220.158H186.48C165.727 220.158 148.904 203.336 148.904 182.583C148.904 161.829 165.727 145.007 186.48 145.007H278.33V96.3024H0Z" fill="white"/>
<path d="M176.739 182.586C176.739 177.206 181.099 172.846 186.48 172.846V154.755C171.107 154.755 158.649 167.217 158.649 182.586C158.649 197.956 171.111 210.417 186.48 210.417V192.327C181.099 192.327 176.739 187.967 176.739 182.586Z" fill="#5093FE"/>
<path d="M186.48 154.752C201.853 154.752 214.311 167.213 214.311 182.583C214.311 197.952 201.849 210.414 186.48 210.414H278.33V154.752H186.48Z" fill="#5093FE"/>
<path d="M214.315 182.586C214.315 167.213 201.853 154.755 186.484 154.755V172.846C191.864 172.846 196.224 177.206 196.224 182.586C196.224 187.967 191.864 192.327 186.484 192.327V210.417C201.853 210.417 214.315 197.956 214.315 182.586Z" fill="#5093FE"/>
</svg>
