<svg width="51" height="33" viewBox="0 0 51 33" fill="none" xmlns="http://www.w3.org/2000/svg">
<path d="M11.4426 25.4262V27.011C11.4427 27.6312 11.3206 28.2454 11.0832 28.8184C10.8458 29.3914 10.4979 29.9121 10.0593 30.3506L9.08197 31.3279H23.2459L22.2686 30.3506C21.83 29.9121 21.482 29.3914 21.2447 28.8184C21.0073 28.2454 20.8852 27.6312 20.8852 27.011V25.4262M30.3279 6.54098V21.8852C30.3279 22.8244 29.9548 23.725 29.2907 24.3891C28.6267 25.0532 27.726 25.4262 26.7869 25.4262H5.54098C4.60186 25.4262 3.70119 25.0532 3.03713 24.3891C2.37307 23.725 2 22.8244 2 21.8852V6.54098M30.3279 6.54098C30.3279 5.60186 29.9548 4.70119 29.2907 4.03713C28.6267 3.37307 27.726 3 26.7869 3H5.54098C4.60186 3 3.70119 3.37307 3.03713 4.03713C2.37307 4.70119 2 5.60186 2 6.54098M30.3279 6.54098V17.1639C30.3279 18.1031 29.9548 19.0037 29.2907 19.6678C28.6267 20.3319 27.726 20.7049 26.7869 20.7049H5.54098C4.60186 20.7049 3.70119 20.3319 3.03713 19.6678C2.37307 19.0037 2 18.1031 2 17.1639V6.54098" stroke="white" stroke-width="2.36066" stroke-linecap="round" stroke-linejoin="round"/>
<path d="M41.1475 6.49181H38.4918C37.7875 6.49181 37.112 6.77161 36.6139 7.26965C36.1159 7.7677 35.8361 8.4432 35.8361 9.14754V28.623C35.8361 29.3273 36.1159 30.0028 36.6139 30.5008C37.112 30.9989 37.7875 31.2787 38.4918 31.2787H47.3443C48.0486 31.2787 48.7241 30.9989 49.2221 30.5008C49.7202 30.0028 50 29.3273 50 28.623V9.14754C50 8.4432 49.7202 7.7677 49.2221 7.26965C48.7241 6.77161 48.0486 6.49181 47.3443 6.49181H44.6885M41.1475 6.49181V8.2623H44.6885V6.49181M41.1475 6.49181H44.6885M41.1475 28.623H44.6885" stroke="white" stroke-width="1.77049" stroke-linecap="round" stroke-linejoin="round"/>
</svg>
