<svg width="23" height="17" viewBox="0 0 23 17" fill="none" xmlns="http://www.w3.org/2000/svg">
<path d="M23 0.833221H0V16.1667H23V0.833221Z" fill="#F0F0F0"/>
<path d="M23 2.74973H0V4.66623H23V2.74973Z" fill="#D80027"/>
<path d="M23 6.58322H0V8.49972H23V6.58322Z" fill="#D80027"/>
<path d="M23 10.4162H0V12.3327H23V10.4162Z" fill="#D80027"/>
<path d="M23 14.2497H0V16.1662H23V14.2497Z" fill="#D80027"/>
<path d="M11.5 0.833221H0V9.08973H11.5V0.833221Z" fill="#2E52B2"/>
<path d="M4.48424 4.21552L4.29903 4.78531H3.69995L4.1847 5.13728L3.99949 5.70702L4.48424 5.35506L4.96868 5.70702L4.78351 5.13728L5.26826 4.78531H4.66914L4.48424 4.21552Z" fill="#F0F0F0"/>
<path d="M4.66914 6.84148L4.48424 6.27174L4.29903 6.84148H3.69995L4.1847 7.19349L3.99949 7.76323L4.48424 7.41122L4.96868 7.76323L4.78351 7.19349L5.26826 6.84148H4.66914Z" fill="#F0F0F0"/>
<path d="M2.1372 6.84148L1.95226 6.27174L1.76705 6.84148H1.16797L1.65272 7.19349L1.46751 7.76323L1.95226 7.41122L2.43674 7.76323L2.25157 7.19349L2.73624 6.84148H2.1372Z" fill="#F0F0F0"/>
<path d="M1.95226 4.21552L1.76705 4.78531H1.16797L1.65272 5.13728L1.46751 5.70702L1.95226 5.35506L2.43674 5.70702L2.25157 5.13728L2.73624 4.78531H2.1372L1.95226 4.21552Z" fill="#F0F0F0"/>
<path d="M4.48424 2.15927L4.29903 2.72911H3.69995L4.1847 3.08111L3.99949 3.65086L4.48424 3.29885L4.96868 3.65086L4.78351 3.08111L5.26826 2.72911H4.66914L4.48424 2.15927Z" fill="#F0F0F0"/>
<path d="M1.95226 2.15927L1.76705 2.72911H1.16797L1.65272 3.08111L1.46751 3.65086L1.95226 3.29885L2.43674 3.65086L2.25157 3.08111L2.73624 2.72911H2.1372L1.95226 2.15927Z" fill="#F0F0F0"/>
<path d="M7.01594 4.21552L6.83077 4.78531H6.23169L6.7164 5.13728L6.53127 5.70702L7.01594 5.35506L7.50046 5.70702L7.31525 5.13728L7.8 4.78531H7.20092L7.01594 4.21552Z" fill="#F0F0F0"/>
<path d="M7.20092 6.84148L7.01594 6.27174L6.83077 6.84148H6.23169L6.7164 7.19349L6.53127 7.76323L7.01594 7.41122L7.50046 7.76323L7.31525 7.19349L7.8 6.84148H7.20092Z" fill="#F0F0F0"/>
<path d="M9.73286 6.84148L9.54792 6.27174L9.36271 6.84148H8.76367L9.24833 7.19349L9.06317 7.76323L9.54792 7.41122L10.0324 7.76323L9.84719 7.19349L10.3319 6.84148H9.73286Z" fill="#F0F0F0"/>
<path d="M9.54792 4.21552L9.36271 4.78531H8.76367L9.24833 5.13728L9.06317 5.70702L9.54792 5.35506L10.0324 5.70702L9.84719 5.13728L10.3319 4.78531H9.73286L9.54792 4.21552Z" fill="#F0F0F0"/>
<path d="M7.01594 2.15927L6.83077 2.72911H6.23169L6.7164 3.08111L6.53127 3.65086L7.01594 3.29885L7.50046 3.65086L7.31525 3.08111L7.8 2.72911H7.20092L7.01594 2.15927Z" fill="#F0F0F0"/>
<path d="M9.54792 2.15927L9.36271 2.72911H8.76367L9.24833 3.08111L9.06317 3.65086L9.54792 3.29885L10.0324 3.65086L9.84719 3.08111L10.3319 2.72911H9.73286L9.54792 2.15927Z" fill="#F0F0F0"/>
</svg>
